<svg id="Layer_1" data-name="Layer 1" xmlns="http://www.w3.org/2000/svg" viewBox="0 0 94.66 94.66"><title>G</title><path d="M50,2A47.33,47.33,0,1,0,97.33,49.28,47.33,47.33,0,0,0,50,2ZM78.16,82.7a12.74,12.74,0,0,1-3.73-1.47,29.82,29.82,0,0,1-3.78-2.08q-9.47,6.43-22.43,6.43a31.44,31.44,0,0,1-24.9-11.32q-9.26-10.7-9.26-26.08,0-15.74,9.11-26.43,9.61-11.32,25-11.32a33.18,33.18,0,0,1,15.25,3.73,30.48,30.48,0,0,1,11.7,10.21,3.05,3.05,0,0,1,.67,1.49c0,.48-1.22,2.07-3.68,4.76s-3.86,4-4.24,4-1.32-1-3.14-3.14a32.31,32.31,0,0,0-6.27-5.81,17.32,17.32,0,0,0-9.78-3.14q-9.72,0-15.94,8.13a28,28,0,0,0-5.66,17.48,27.76,27.76,0,0,0,5.81,17.39q6.33,8.18,15.9,8.18a31,31,0,0,0,17.28-5.14q-.11-1.39-.87-9.78a96.07,96.07,0,0,1-.62-9.72c0-.58.38-.87,1.13-.87s1.63,0,2.93.13,2.28.12,2.93.12,1.65,0,3-.1,2.33-.1,3-.1,1.08.55,1.08,1.64,0,3-.13,5.43-.13,4.23-.13,5.43q0,7.4,1,20.06l0,.72C79.51,82.32,79.08,82.7,78.16,82.7Z" transform="translate(-2.67 -1.95)" style="fill:#39b54a"/></svg>