<svg id="Layer_1" data-name="Layer 1" xmlns="http://www.w3.org/2000/svg" viewBox="0 0 325.49 95.7"><title>GregsList</title><text transform="translate(94.66 77.7)" style="font-size:72px;fill:#ffffff;font-family:MyriadPro-Regular, Myriad Pro"><tspan style="letter-spacing:-0.009996202256944444em">r</tspan><tspan x="22.82" y="0">egsList</tspan></text><path d="M53.46,3a47.33,47.33,0,1,0,47.33,47.33A47.33,47.33,0,0,0,53.46,3ZM81.62,83.7a12.74,12.74,0,0,1-3.73-1.47,29.82,29.82,0,0,1-3.78-2.08q-9.47,6.43-22.43,6.43A31.41,31.41,0,0,1,26.79,75.26q-9.27-10.7-9.26-26.08,0-15.74,9.1-26.43,9.61-11.32,25.05-11.32a33.15,33.15,0,0,1,15.25,3.73A30.58,30.58,0,0,1,78.64,25.37a3.11,3.11,0,0,1,.66,1.49q0,.72-3.67,4.76c-2.46,2.69-3.87,4-4.25,4s-1.32-1-3.14-3.14A32.31,32.31,0,0,0,62,26.71a17.32,17.32,0,0,0-9.77-3.14q-9.73,0-16,8.13a28,28,0,0,0-5.66,17.48A27.76,27.76,0,0,0,36.4,66.57q6.33,8.18,15.9,8.18a31,31,0,0,0,17.28-5.14q-.1-1.39-.87-9.78-.61-6-.62-9.72c0-.58.38-.87,1.13-.87s1.63,0,2.93.13,2.28.12,2.94.12,1.64,0,3-.1,2.33-.1,3-.1,1.08.55,1.08,1.64,0,3-.13,5.43-.12,4.23-.12,5.43q0,7.4,1,20.06l.05.72C83,83.32,82.54,83.7,81.62,83.7Z" transform="translate(-6.13 -2.95)" style="fill:#ffffff"/></svg>